# Blender 4.3.2
# www.blender.org
mtllib hexHighlight.mtl
o Cube
v 1.481506 -0.100000 -0.851768
v 1.481506 0.100000 -0.851768
v 0.003100 -0.100000 -1.708906
v 0.003100 0.100000 -1.708906
v 1.678013 -0.100000 -0.968801
v 1.678013 0.100000 -0.968801
v -0.000000 -0.100000 -1.937602
v -0.000000 0.100000 -1.937602
v -1.478406 -0.100000 -0.857138
v -1.478406 0.100000 -0.857138
v -1.678013 -0.100000 -0.968801
v -1.678013 0.100000 -0.968801
v -1.481506 -0.100000 0.851768
v -1.481506 0.100000 0.851768
v -1.678013 -0.100000 0.968801
v -1.678013 0.100000 0.968801
v 1.478406 -0.100000 0.857138
v 1.478406 0.100000 0.857138
v 1.678013 -0.100000 0.968801
v 1.678013 0.100000 0.968801
v -0.003101 -0.100000 1.708906
v -0.003101 0.100000 1.708906
v -0.000000 -0.100000 1.937602
v -0.000000 0.100000 1.937602
vn -0.5016 -0.0000 0.8651
vn -0.9999 -0.0000 0.0136
vn 0.5000 -0.0000 -0.8660
vn 0.5117 -0.0000 0.8592
vn -0.0000 -1.0000 -0.0000
vn -0.0000 1.0000 -0.0000
vn 0.4984 -0.0000 0.8669
vn -0.4882 -0.0000 0.8727
vn -0.5000 -0.0000 -0.8660
vn 1.0000 -0.0000 0.0018
vn -1.0000 -0.0000 -0.0000
vn -1.0000 -0.0000 -0.0018
vn 1.0000 -0.0000 -0.0000
vn 0.5016 -0.0000 -0.8651
vn 0.9999 -0.0000 -0.0136
vn -0.5000 -0.0000 0.8660
vn -0.4984 -0.0000 -0.8669
vn 0.5000 -0.0000 0.8660
vt 0.375000 0.000000
vt 0.625000 0.000000
vt 0.625000 0.250000
vt 0.375000 0.250000
vt 0.625000 0.500000
vt 0.375000 0.500000
vt 0.625000 0.750000
vt 0.375000 0.750000
vt 0.625000 1.000000
vt 0.375000 1.000000
vt 0.125000 0.500000
vt 0.125000 0.750000
vt 0.875000 0.500000
vt 0.875000 0.750000
s 0
f 1/1/1 2/2/1 4/3/1 3/4/1
f 3/4/2 4/3/2 8/5/2 7/6/2
f 7/6/3 8/5/3 6/7/3 5/8/3
f 5/8/4 6/7/4 2/9/4 1/10/4
f 3/11/5 7/6/5 5/8/5 1/12/5
f 8/5/6 4/13/6 2/14/6 6/7/6
f 3/1/7 4/2/7 10/3/7 9/4/7
f 9/4/8 10/3/8 12/5/8 11/6/8
f 11/6/9 12/5/9 8/7/9 7/8/9
f 9/11/5 11/6/5 7/8/5 3/12/5
f 12/5/6 10/13/6 4/14/6 8/7/6
f 9/1/10 10/2/10 14/3/10 13/4/10
f 13/4/4 14/3/4 16/5/4 15/6/4
f 15/6/11 16/5/11 12/7/11 11/8/11
f 13/11/5 15/6/5 11/8/5 9/12/5
f 16/5/6 14/13/6 10/14/6 12/7/6
f 17/1/12 18/2/12 2/3/12 1/4/12
f 5/6/13 6/5/13 20/7/13 19/8/13
f 19/8/8 20/7/8 18/9/8 17/10/8
f 1/11/5 5/6/5 19/8/5 17/12/5
f 6/5/6 2/13/6 18/14/6 20/7/6
f 13/1/14 14/2/14 22/3/14 21/4/14
f 21/4/15 22/3/15 24/5/15 23/6/15
f 23/6/16 24/5/16 16/7/16 15/8/16
f 21/11/5 23/6/5 15/8/5 13/12/5
f 24/5/6 22/13/6 14/14/6 16/7/6
f 21/1/17 22/2/17 18/3/17 17/4/17
f 19/6/18 20/5/18 24/7/18 23/8/18
f 17/11/5 19/6/5 23/8/5 21/12/5
f 20/5/6 18/13/6 22/14/6 24/7/6
